<svg xmlns="http://www.w3.org/2000/svg" viewBox="0 0 400 400" width="400" height="400">
  <g id="star-main-group" class="transform-group">
    <polygon 
      id="star-outer" 
      class="editable editable-fill primary-color-element" 
      points="200,40 240,120 330,120 270,180 290,270 200,220 110,270 130,180 70,120 160,120" 
      fill="#0B3C5D" 
    />
    <polygon 
      id="star-middle" 
      class="editable editable-fill secondary-color-element" 
      points="200,100 225,150 280,150 240,185 255,240 200,210 145,240 160,185 120,150 175,150" 
      fill="#328CC1" 
    />
    <polygon 
      id="star-inner" 
      class="editable editable-fill accent-color-element" 
      points="200,140 215,170 250,170 225,190 235,225 200,205 165,225 175,190 150,170 185,170" 
      fill="#D9B310" 
    />
  </g>
</svg>